<svg xmlns="http://www.w3.org/2000/svg"  viewBox="0 0 80 80" width="480px" height="480px"><path fill="#f5c276" d="M44.5 54.5H53.5V77.5H44.5z"/><path fill="#c29653" d="M53,55v22h-8V55H53 M54,54H44v24h10V54L54,54z"/><path fill="#8bb7f0" d="M12.5,55.5V28c0-7.444,6.056-13.5,13.5-13.5h38c7.444,0,13.5,6.056,13.5,13.5v27.5H12.5z"/><path fill="#4e7ab5" d="M64,15c7.168,0,13,5.832,13,13v27H13V28c0-7.168,5.832-13,13-13H64 M64,14H26c-7.7,0-14,6.3-14,14 v28h66V28C78,20.3,71.7,14,64,14L64,14z"/><path fill="#8bb7f0" d="M12.5,55.5V27.705C12.5,20.547,18.683,14.5,26,14.5c7.444,0,13.5,6.056,13.5,13.5v27.5H12.5z"/><path fill="#4e7ab5" d="M26,15c7.168,0,13,5.832,13,13v27H13V27.705C13,20.818,18.953,15,26,15 M26,14 c-7.7,0-14,6.3-14,13.705V56h28V28C40,20.3,33.7,14,26,14L26,14z"/><path fill="#f78f8f" d="M50.5 24.5H71.5V25.5H50.5z"/><path fill="#c74343" d="M72 24L50 24 50 26 72 26 72 24z"/><g><path fill="#f78f8f" d="M49 22.5A2.5 2.5 0 1 0 49 27.5A2.5 2.5 0 1 0 49 22.5Z"/><path fill="#c74343" d="M49,23c1.103,0,2,0.897,2,2s-0.897,2-2,2s-2-0.897-2-2S47.897,23,49,23 M49,22c-1.657,0-3,1.343-3,3 s1.343,3,3,3s3-1.343,3-3S50.657,22,49,22L49,22z"/></g><g><path fill="#f78f8f" d="M64.5 24.5H71.5V35.5H64.5z"/><path fill="#c74343" d="M71,25v10h-6V25H71 M72,24h-8v12h8V24L72,24z"/></g><g><path fill="#8bb7f0" d="M18.5 30.5H33.5V31.5H18.5z"/><path fill="#4e7ab5" d="M34 30L18 30 18 32 34 32 34 30z"/></g></svg>